<svg xmlns="http://www.w3.org/2000/svg" xmlns:xlink="http://www.w3.org/1999/xlink" contentStyleType="text/css" height="2265px" preserveAspectRatio="none" style="width:883px;height:2265px;background:#FFFFFF;" version="1.1" viewBox="0 0 883 2265" width="883px" zoomAndPan="magnify"><title>&#1057;&#1072;&#1081;&#1090; &#1087;&#1088;&#1086;&#1075;&#1088;&#1072;&#1084;&#1084;&#1099; &#1083;&#1086;&#1103;&#1083;&#1100;&#1085;&#1086;&#1089;&#1090;&#1080; &#1089;&#1077;&#1090;&#1080; "&#1040;&#1089;&#1090;&#1088;&#1086;&#1082;&#1086;&#1092;&#1077;"</title><defs/><g><text fill="#000000" font-family="sans-serif" font-size="14" font-weight="bold" lengthAdjust="spacing" textLength="347.8877" x="260.8162" y="23.5352">&#1057;&#1072;&#1081;&#1090; &#1087;&#1088;&#1086;&#1075;&#1088;&#1072;&#1084;&#1084;&#1099; &#1083;&#1086;&#1103;&#1083;&#1100;&#1085;&#1086;&#1089;&#1090;&#1080; &#1089;&#1077;&#1090;&#1080; "&#1040;&#1089;&#1090;&#1088;&#1086;&#1082;&#1086;&#1092;&#1077;"</text><!--cluster ???? ????????? ??????????--><g id="cluster_&#1057;&#1072;&#1081;&#1090; &#1087;&#1088;&#1086;&#1075;&#1088;&#1072;&#1084;&#1084;&#1099; &#1083;&#1086;&#1103;&#1083;&#1100;&#1085;&#1086;&#1089;&#1090;&#1080;"><rect fill="none" height="2215" rx="2.5" ry="2.5" style="stroke:#181818;stroke-width:1.0;" width="461.57" x="415.95" y="44.4883"/><text fill="#000000" font-family="sans-serif" font-size="14" font-weight="bold" lengthAdjust="spacing" textLength="213.3086" x="540.0807" y="60.0234">&#1057;&#1072;&#1081;&#1090; &#1087;&#1088;&#1086;&#1075;&#1088;&#1072;&#1084;&#1084;&#1099; &#1083;&#1086;&#1103;&#1083;&#1100;&#1085;&#1086;&#1089;&#1090;&#1080;</text></g><g id="elem_UC1"><ellipse cx="646.7312" cy="545.4925" fill="#F1F1F1" rx="102.1212" ry="22.8242" style="stroke:#181818;stroke-width:0.5;"/><text fill="#000000" font-family="sans-serif" font-size="14" lengthAdjust="spacing" textLength="168.2871" x="562.5876" y="548.7835">&#1057;&#1086;&#1079;&#1076;&#1072;&#1090;&#1100; &#1091;&#1095;&#1077;&#1090;&#1085;&#1091;&#1102; &#1079;&#1072;&#1087;&#1080;&#1089;&#1100;</text></g><g id="elem_UC2"><ellipse cx="646.7339" cy="463.4891" fill="#F1F1F1" rx="108.7539" ry="24.1508" style="stroke:#181818;stroke-width:0.5;"/><text fill="#000000" font-family="sans-serif" font-size="14" lengthAdjust="spacing" textLength="182.7793" x="555.3443" y="466.7801">&#1055;&#1088;&#1086;&#1089;&#1084;&#1086;&#1090;&#1088;&#1077;&#1090;&#1100; &#1089;&#1090;&#1072;&#1090;&#1100;&#1080; &#1089;&#1072;&#1081;&#1090;&#1072;</text></g><g id="elem_UC3"><ellipse cx="646.7257" cy="621.4854" fill="#F1F1F1" rx="77.7857" ry="17.9571" style="stroke:#181818;stroke-width:0.5;"/><text fill="#000000" font-family="sans-serif" font-size="14" lengthAdjust="spacing" textLength="112.7998" x="590.3258" y="624.7764">&#1042;&#1086;&#1081;&#1090;&#1080; &#1074; &#1089;&#1080;&#1089;&#1090;&#1077;&#1084;&#1091;</text></g><g id="elem_UC4"><ellipse cx="646.7324" cy="705.4908" fill="#F1F1F1" rx="144.9124" ry="31.3825" style="stroke:#181818;stroke-width:0.5;"/><text fill="#000000" font-family="sans-serif" font-size="14" lengthAdjust="spacing" textLength="259.5879" x="516.9385" y="708.7818">&#1048;&#1079;&#1084;&#1077;&#1085;&#1080;&#1090;&#1100; &#1089;&#1074;&#1077;&#1076;&#1077;&#1085;&#1080;&#1103; &#1074; &#1091;&#1095;&#1077;&#1090;&#1085;&#1086;&#1081; &#1079;&#1072;&#1087;&#1080;&#1089;&#1080;</text></g><g id="elem_UC5"><ellipse cx="646.7349" cy="793.4913" fill="#F1F1F1" rx="96.8649" ry="21.773" style="stroke:#181818;stroke-width:0.5;"/><text fill="#000000" font-family="sans-serif" font-size="14" lengthAdjust="spacing" textLength="156.6592" x="568.4053" y="796.7823">&#1044;&#1086;&#1073;&#1072;&#1074;&#1080;&#1090;&#1100; &#1085;&#1086;&#1074;&#1091;&#1102; &#1082;&#1072;&#1088;&#1090;&#1091;</text></g><g id="elem_UC6"><ellipse cx="646.7349" cy="871.4873" fill="#F1F1F1" rx="92.4449" ry="20.889" style="stroke:#181818;stroke-width:0.5;"/><text fill="#000000" font-family="sans-serif" font-size="14" lengthAdjust="spacing" textLength="146.7607" x="573.3545" y="874.7783">&#1047;&#1072;&#1073;&#1083;&#1086;&#1082;&#1080;&#1088;&#1086;&#1074;&#1072;&#1090;&#1100; &#1082;&#1072;&#1088;&#1090;&#1091;</text></g><g id="elem_UC7"><ellipse cx="646.733" cy="950.4849" fill="#F1F1F1" rx="104.833" ry="23.3666" style="stroke:#181818;stroke-width:0.5;"/><text fill="#000000" font-family="sans-serif" font-size="14" lengthAdjust="spacing" textLength="174.2344" x="559.6158" y="953.7759">&#1055;&#1086;&#1087;&#1086;&#1083;&#1085;&#1080;&#1090;&#1100; &#1073;&#1072;&#1083;&#1072;&#1085;&#1089; &#1082;&#1072;&#1088;&#1090;&#1099;</text></g><g id="elem_UC8"><ellipse cx="646.7293" cy="108.4901" fill="#F1F1F1" rx="130.5093" ry="28.5019" style="stroke:#181818;stroke-width:0.5;"/><text fill="#000000" font-family="sans-serif" font-size="14" lengthAdjust="spacing" textLength="229.3252" x="532.0667" y="111.7811">&#1055;&#1088;&#1086;&#1089;&#1084;&#1086;&#1090;&#1088;&#1077;&#1090;&#1100; &#1086;&#1087;&#1077;&#1088;&#1072;&#1094;&#1080;&#1080; &#1087;&#1086; &#1082;&#1072;&#1088;&#1090;&#1077;</text></g><g id="elem_UC9"><ellipse cx="646.727" cy="200.4837" fill="#F1F1F1" rx="128.777" ry="28.1554" style="stroke:#181818;stroke-width:0.5;"/><text fill="#000000" font-family="sans-serif" font-size="14" lengthAdjust="spacing" textLength="225.6611" x="533.8964" y="203.7747">&#1055;&#1088;&#1086;&#1089;&#1084;&#1086;&#1090;&#1088;&#1077;&#1090;&#1100; &#1082;&#1086;&#1083;&#1080;&#1095;&#1077;&#1089;&#1090;&#1074;&#1086; &#1092;&#1080;&#1096;&#1077;&#1082;</text></g><g id="elem_UC10"><ellipse cx="646.7313" cy="295.4845" fill="#F1F1F1" rx="147.3313" ry="31.8663" style="stroke:#181818;stroke-width:0.5;"/><text fill="#000000" font-family="sans-serif" font-size="14" lengthAdjust="spacing" textLength="264.6396" x="514.4115" y="298.7756">&#1055;&#1088;&#1086;&#1089;&#1084;&#1086;&#1090;&#1088;&#1077;&#1090;&#1100; &#1089;&#1087;&#1080;&#1089;&#1086;&#1082; &#1074;&#1086;&#1079;&#1085;&#1072;&#1075;&#1088;&#1072;&#1078;&#1076;&#1077;&#1085;&#1080;&#1081;</text></g><g id="elem_UC11"><ellipse cx="646.7335" cy="383.485" fill="#F1F1F1" rx="93.7335" ry="21.1467" style="stroke:#181818;stroke-width:0.5;"/><text fill="#000000" font-family="sans-serif" font-size="14" lengthAdjust="spacing" textLength="149.6592" x="571.9039" y="386.776">&#1056;&#1072;&#1089;&#1087;&#1077;&#1095;&#1072;&#1090;&#1072;&#1090;&#1100; &#1083;&#1080;&#1089;&#1090;&#1086;&#1074;&#1082;&#1091;</text></g><g id="elem_UC12"><ellipse cx="646.7284" cy="1807.484" fill="#F1F1F1" rx="125.0284" ry="27.4057" style="stroke:#181818;stroke-width:0.5;"/><text fill="#000000" font-family="sans-serif" font-size="14" lengthAdjust="spacing" textLength="217.7109" x="537.8729" y="1810.775">&#1055;&#1077;&#1088;&#1077;&#1076;&#1072;&#1090;&#1100; &#1089;&#1074;&#1077;&#1076;&#1077;&#1085;&#1080;&#1103; &#1086; &#1087;&#1086;&#1082;&#1091;&#1087;&#1082;&#1072;&#1093;</text></g><g id="elem_UC13"><ellipse cx="646.7256" cy="2087.4854" fill="#F1F1F1" rx="214.7856" ry="45.3571" style="stroke:#181818;stroke-width:0.5;"/><text fill="#000000" font-family="sans-serif" font-size="14" lengthAdjust="spacing" textLength="403.4707" x="444.9902" y="2090.7764">&#1055;&#1077;&#1088;&#1077;&#1076;&#1072;&#1090;&#1100; &#1089;&#1074;&#1077;&#1076;&#1077;&#1085;&#1080;&#1103; &#1086;&#1073; &#1080;&#1089;&#1087;&#1086;&#1083;&#1100;&#1079;&#1086;&#1074;&#1072;&#1085;&#1085;&#1099;&#1093; &#1074;&#1086;&#1079;&#1085;&#1072;&#1075;&#1088;&#1072;&#1078;&#1076;&#1077;&#1085;&#1080;&#1103;&#1093;</text></g><g id="elem_UC14"><ellipse cx="646.7277" cy="1981.4858" fill="#F1F1F1" rx="117.4877" ry="25.8975" style="stroke:#181818;stroke-width:0.5;"/><text fill="#000000" font-family="sans-serif" font-size="14" lengthAdjust="spacing" textLength="201.6191" x="545.9181" y="1984.7768">&#1055;&#1088;&#1086;&#1074;&#1077;&#1088;&#1080;&#1090;&#1100; &#1082;&#1072;&#1088;&#1090;&#1091; &#1083;&#1086;&#1103;&#1083;&#1100;&#1085;&#1086;&#1089;&#1090;&#1080;</text></g><g id="elem_UC15"><ellipse cx="646.7337" cy="1895.491" fill="#F1F1F1" rx="114.0137" ry="25.2027" style="stroke:#181818;stroke-width:0.5;"/><text fill="#000000" font-family="sans-serif" font-size="14" lengthAdjust="spacing" textLength="194.1543" x="549.6566" y="1898.782">&#1055;&#1088;&#1086;&#1074;&#1077;&#1088;&#1080;&#1090;&#1100; &#1074;&#1086;&#1079;&#1085;&#1072;&#1075;&#1088;&#1072;&#1078;&#1076;&#1077;&#1085;&#1080;&#1077;</text></g><g id="elem_UC16"><ellipse cx="646.7334" cy="1467.491" fill="#F1F1F1" rx="99.0634" ry="22.2127" style="stroke:#181818;stroke-width:0.5;"/><text fill="#000000" font-family="sans-serif" font-size="14" lengthAdjust="spacing" textLength="161.54" x="565.9634" y="1470.782">&#1047;&#1072;&#1074;&#1077;&#1089;&#1090;&#1080; &#1085;&#1086;&#1074;&#1086;&#1077; &#1087;&#1088;&#1072;&#1074;&#1080;&#1083;&#1086;</text></g><g id="elem_UC17"><ellipse cx="646.7317" cy="1383.4926" fill="#F1F1F1" rx="123.3217" ry="27.0643" style="stroke:#181818;stroke-width:0.5;"/><text fill="#000000" font-family="sans-serif" font-size="14" lengthAdjust="spacing" textLength="214.0811" x="539.6912" y="1386.7836">&#1048;&#1079;&#1084;&#1077;&#1085;&#1080;&#1090;&#1100; &#1080;&#1084;&#1077;&#1102;&#1097;&#1077;&#1077;&#1089;&#1103; &#1087;&#1088;&#1072;&#1074;&#1080;&#1083;&#1086;</text></g><g id="elem_UC18"><ellipse cx="646.7313" cy="1289.4885" fill="#F1F1F1" rx="146.4013" ry="31.6803" style="stroke:#181818;stroke-width:0.5;"/><text fill="#000000" font-family="sans-serif" font-size="14" lengthAdjust="spacing" textLength="262.6982" x="515.3822" y="1292.7796">&#1044;&#1086;&#1073;&#1072;&#1074;&#1080;&#1090;&#1100; &#1085;&#1086;&#1074;&#1099;&#1081; &#1074;&#1080;&#1076; &#1074;&#1086;&#1079;&#1085;&#1072;&#1075;&#1088;&#1072;&#1078;&#1076;&#1077;&#1085;&#1080;&#1103;</text></g><g id="elem_UC19"><ellipse cx="646.7348" cy="1190.4852" fill="#F1F1F1" rx="149.4848" ry="32.297" style="stroke:#181818;stroke-width:0.5;"/><text fill="#000000" font-family="sans-serif" font-size="14" lengthAdjust="spacing" textLength="269.1309" x="512.1693" y="1193.7762">&#1048;&#1079;&#1084;&#1077;&#1085;&#1080;&#1090;&#1100; &#1089;&#1074;&#1077;&#1076;&#1077;&#1085;&#1080;&#1103; &#1086; &#1074;&#1086;&#1079;&#1085;&#1072;&#1075;&#1088;&#1072;&#1078;&#1076;&#1077;&#1085;&#1080;&#1080;</text></g><g id="elem_UC20"><ellipse cx="646.7335" cy="1102.491" fill="#F1F1F1" rx="93.6635" ry="21.1327" style="stroke:#181818;stroke-width:0.5;"/><text fill="#000000" font-family="sans-serif" font-size="14" lengthAdjust="spacing" textLength="149.502" x="571.9825" y="1105.782">&#1054;&#1087;&#1091;&#1073;&#1083;&#1080;&#1082;&#1086;&#1074;&#1072;&#1090;&#1100; &#1089;&#1090;&#1072;&#1090;&#1100;&#1102;</text></g><g id="elem_UC21"><ellipse cx="646.7339" cy="1027.4891" fill="#F1F1F1" rx="80.0039" ry="18.4008" style="stroke:#181818;stroke-width:0.5;"/><text fill="#000000" font-family="sans-serif" font-size="14" lengthAdjust="spacing" textLength="118.084" x="587.692" y="1030.7801">&#1048;&#1079;&#1084;&#1077;&#1085;&#1080;&#1090;&#1100; &#1089;&#1090;&#1072;&#1090;&#1100;&#1102;</text></g><g id="elem_UC22"><ellipse cx="646.7309" cy="1727.4865" fill="#F1F1F1" rx="76.0409" ry="17.6082" style="stroke:#181818;stroke-width:0.5;"/><text fill="#000000" font-family="sans-serif" font-size="14" lengthAdjust="spacing" textLength="108.5957" x="592.4331" y="1730.7775">&#1059;&#1076;&#1072;&#1083;&#1080;&#1090;&#1100; &#1089;&#1090;&#1072;&#1090;&#1100;&#1102;</text></g><g id="elem_UC23"><ellipse cx="646.7324" cy="1644.4908" fill="#F1F1F1" rx="140.7124" ry="30.5425" style="stroke:#181818;stroke-width:0.5;"/><text fill="#000000" font-family="sans-serif" font-size="14" lengthAdjust="spacing" textLength="250.7969" x="521.3339" y="1647.7818">&#1042;&#1085;&#1077;&#1089;&#1090;&#1080; &#1080;&#1079;&#1084;&#1077;&#1085;&#1077;&#1085;&#1080;&#1103; &#1074; &#1091;&#1095;&#1077;&#1090;&#1085;&#1091;&#1102; &#1079;&#1072;&#1087;&#1080;&#1089;&#1100;</text></g><g id="elem_UC24"><ellipse cx="646.7291" cy="1551.4881" fill="#F1F1F1" rx="124.0991" ry="27.2198" style="stroke:#181818;stroke-width:0.5;"/><text fill="#000000" font-family="sans-serif" font-size="14" lengthAdjust="spacing" textLength="215.7354" x="538.8614" y="1554.7791">&#1047;&#1072;&#1073;&#1083;&#1086;&#1082;&#1080;&#1088;&#1086;&#1074;&#1072;&#1090;&#1100; &#1091;&#1095;&#1077;&#1090;&#1085;&#1091;&#1102; &#1079;&#1072;&#1087;&#1080;&#1089;&#1100;</text></g><g id="elem_UC25"><ellipse cx="646.7308" cy="2205.4924" fill="#F1F1F1" rx="176.0708" ry="37.6142" style="stroke:#181818;stroke-width:0.5;"/><text fill="#000000" font-family="sans-serif" font-size="14" lengthAdjust="spacing" textLength="324.1807" x="484.6405" y="2208.7835">&#1053;&#1072;&#1095;&#1080;&#1089;&#1083;&#1080;&#1090;&#1100; &#1074;&#1086;&#1079;&#1085;&#1072;&#1075;&#1088;&#1072;&#1078;&#1076;&#1077;&#1085;&#1080;&#1077; &#1087;&#1086; &#1076;&#1072;&#1090;&#1077; &#1088;&#1086;&#1078;&#1076;&#1077;&#1085;&#1080;&#1103;</text></g><!--entity Visitor--><g id="elem_Visitor"><ellipse cx="293.0076" cy="489.7483" fill="#F1F1F1" rx="8" ry="8" style="stroke:#181818;stroke-width:0.5;"/><path d="M293.0076,497.7483 L293.0076,524.7483 M280.0076,505.7483 L306.0076,505.7483 M293.0076,524.7483 L280.0076,539.7483 M293.0076,524.7483 L306.0076,539.7483 " fill="none" style="stroke:#181818;stroke-width:0.5;"/><text fill="#000000" font-family="sans-serif" font-size="14" lengthAdjust="spacing" textLength="79.4951" x="253.26" y="554.7834">&#1055;&#1086;&#1089;&#1077;&#1090;&#1080;&#1090;&#1077;&#1083;&#1100;</text></g><!--entity Member--><g id="elem_Member"><ellipse cx="80.0366" cy="535.7483" fill="#F1F1F1" rx="8" ry="8" style="stroke:#181818;stroke-width:0.5;"/><path d="M80.0366,543.7483 L80.0366,570.7483 M67.0366,551.7483 L93.0366,551.7483 M80.0366,570.7483 L67.0366,585.7483 M80.0366,570.7483 L93.0366,585.7483 " fill="none" style="stroke:#181818;stroke-width:0.5;"/><text fill="#000000" font-family="sans-serif" font-size="14" lengthAdjust="spacing" textLength="148.0732" x="6" y="600.7834">&#1059;&#1095;&#1072;&#1089;&#1090;&#1085;&#1080;&#1082; &#1087;&#1088;&#1086;&#1075;&#1088;&#1072;&#1084;&#1084;&#1099;</text></g><!--entity Manager--><g id="elem_Manager"><ellipse cx="293.0159" cy="1353.7483" fill="#F1F1F1" rx="8" ry="8" style="stroke:#181818;stroke-width:0.5;"/><path d="M293.0159,1361.7483 L293.0159,1388.7483 M280.0159,1369.7483 L306.0159,1369.7483 M293.0159,1388.7483 L280.0159,1403.7483 M293.0159,1388.7483 L306.0159,1403.7483 " fill="none" style="stroke:#181818;stroke-width:0.5;"/><text fill="#000000" font-family="sans-serif" font-size="14" lengthAdjust="spacing" textLength="72.6318" x="256.7" y="1418.7834">&#1052;&#1077;&#1085;&#1077;&#1076;&#1078;&#1077;&#1088;</text></g><!--entity Bank--><g id="elem_Bank"><ellipse cx="293.0106" cy="955.7483" fill="#F1F1F1" rx="8" ry="8" style="stroke:#181818;stroke-width:0.5;"/><path d="M293.0106,963.7483 L293.0106,990.7483 M280.0106,971.7483 L306.0106,971.7483 M293.0106,990.7483 L280.0106,1005.7483 M293.0106,990.7483 L306.0106,1005.7483 " fill="none" style="stroke:#181818;stroke-width:0.5;"/><text fill="#000000" font-family="sans-serif" font-size="14" lengthAdjust="spacing" textLength="138.7012" x="223.66" y="1020.7834">&#1041;&#1072;&#1085;&#1082;&#1086;&#1074;&#1089;&#1082;&#1072;&#1103; &#1089;&#1080;&#1089;&#1090;&#1077;&#1084;&#1072;</text></g><!--entity Sales--><g id="elem_Sales"><ellipse cx="293.008" cy="1908.7483" fill="#F1F1F1" rx="8" ry="8" style="stroke:#181818;stroke-width:0.5;"/><path d="M293.008,1916.7483 L293.008,1943.7483 M280.008,1924.7483 L306.008,1924.7483 M293.008,1943.7483 L280.008,1958.7483 M293.008,1943.7483 L306.008,1958.7483 " fill="none" style="stroke:#181818;stroke-width:0.5;"/><text fill="#000000" font-family="sans-serif" font-size="14" lengthAdjust="spacing" textLength="157.876" x="214.07" y="1973.7834">&#1057;&#1080;&#1089;&#1090;&#1077;&#1084;&#1072; &#1091;&#1095;&#1077;&#1090;&#1072; &#1087;&#1088;&#1086;&#1076;&#1072;&#1078;</text></g><!--entity Time--><g id="elem_Time"><ellipse cx="293.0118" cy="2175.7483" fill="#F1F1F1" rx="8" ry="8" style="stroke:#181818;stroke-width:0.5;"/><path d="M293.0118,2183.7483 L293.0118,2210.7483 M280.0118,2191.7483 L306.0118,2191.7483 M293.0118,2210.7483 L280.0118,2225.7483 M293.0118,2210.7483 L306.0118,2225.7483 " fill="none" style="stroke:#181818;stroke-width:0.5;"/><text fill="#000000" font-family="sans-serif" font-size="14" lengthAdjust="spacing" textLength="42.1436" x="271.94" y="2240.7834">&#1042;&#1088;&#1077;&#1084;&#1103;</text></g><!--link Visitor to UC1--><g id="link_Visitor_UC1"><path d="M333,522.3683 C384.78,526.1983 472.0064,532.6456 543.2364,537.9156 " fill="none" id="Visitor-to-UC1" style="stroke:#181818;stroke-width:1.0;"/><polygon fill="#181818" points="549.22,538.3583,540.5397,533.7051,544.2336,537.9894,539.9494,541.6833,549.22,538.3583" style="stroke:#181818;stroke-width:1.0;"/></g><!--link Visitor to UC2--><g id="link_Visitor_UC2"><path d="M333,513.2783 C386.74,504.7283 479.2046,490.0016 551.3146,478.5216 " fill="none" id="Visitor-to-UC2" style="stroke:#181818;stroke-width:1.0;"/><polygon fill="#181818" points="557.24,477.5783,547.723,475.043,552.3022,478.3644,548.9808,482.9435,557.24,477.5783" style="stroke:#181818;stroke-width:1.0;"/></g><!--link Member to UC3--><g id="link_Member_UC3"><path d="M154.57,572.7783 C263.59,583.5883 460.8193,603.1461 568.5093,613.8261 " fill="none" id="Member-to-UC3" style="stroke:#181818;stroke-width:1.0;"/><polygon fill="#181818" points="574.48,614.4183,565.9187,609.5496,569.5044,613.9248,565.1292,617.5105,574.48,614.4183" style="stroke:#181818;stroke-width:1.0;"/></g><!--link Member to UC4--><g id="link_Member_UC4"><path d="M154.34,587.4383 C220.35,606.8383 320.2,635.2583 407.95,656.4883 C449.84,666.6183 490.3183,675.2927 530.8983,683.4727 " fill="none" id="Member-to-UC4" style="stroke:#181818;stroke-width:1.0;"/><polygon fill="#181818" points="536.78,684.6583,528.7479,678.9587,531.8786,683.6703,527.167,686.801,536.78,684.6583" style="stroke:#181818;stroke-width:1.0;"/></g><!--link Member to UC5--><g id="link_Member_UC5"><path d="M136.53,604.0583 C160.09,619.9383 188.07,638.1683 214.07,653.4883 C297.79,702.7983 315.77,723.7983 407.95,754.4883 C455.58,770.3483 504.8467,779.1608 550.0867,784.8408 " fill="none" id="Member-to-UC5" style="stroke:#181818;stroke-width:1.0;"/><polygon fill="#181818" points="556.04,785.5883,547.6084,780.4983,551.0789,784.9654,546.6118,788.436,556.04,785.5883" style="stroke:#181818;stroke-width:1.0;"/></g><!--link Member to UC6--><g id="link_Member_UC6"><path d="M100.96,604.1683 C123.59,644.8183 163.96,708.3283 214.07,748.4883 C313.65,828.2783 456.4825,855.6951 550.8025,865.5451 " fill="none" id="Member-to-UC6" style="stroke:#181818;stroke-width:1.0;"/><polygon fill="#181818" points="556.77,866.1683,548.2341,861.2551,551.797,865.6489,547.4032,869.2118,556.77,866.1683" style="stroke:#181818;stroke-width:1.0;"/></g><!--link Member to UC7--><g id="link_Member_UC7"><path d="M90.41,603.8883 C106.36,661.5483 144.07,770.5283 214.07,834.4883 C303.87,916.5383 439.5562,941.1573 535.9062,948.2573 " fill="none" id="Member-to-UC7" style="stroke:#181818;stroke-width:1.0;"/><polygon fill="#181818" points="541.89,948.6983,533.2083,944.0477,536.9035,948.3308,532.6204,952.0261,541.89,948.6983" style="stroke:#181818;stroke-width:1.0;"/></g><!--link Member to UC8--><g id="link_Member_UC8"><path d="M91.47,527.0983 C108.92,468.5183 148.69,355.6983 214.07,280.4883 C281.5,202.9283 312.66,192.9583 407.95,154.4883 C446.45,138.9483 484.7187,129.5759 524.4687,122.6659 " fill="none" id="Member-to-UC8" style="stroke:#181818;stroke-width:1.0;"/><polygon fill="#181818" points="530.38,121.6383,520.8279,119.2388,525.4539,122.4946,522.1981,127.1206,530.38,121.6383" style="stroke:#181818;stroke-width:1.0;"/></g><!--link Member to UC9--><g id="link_Member_UC9"><path d="M97.47,526.9383 C118.79,480.5783 159.78,402.6283 214.07,351.4883 C301.92,268.7483 431.7223,232.0764 527.4823,215.0864 " fill="none" id="Member-to-UC9" style="stroke:#181818;stroke-width:1.0;"/><polygon fill="#181818" points="533.39,214.0383,523.8296,211.672,528.4669,214.9118,525.2272,219.549,533.39,214.0383" style="stroke:#181818;stroke-width:1.0;"/></g><!--link Member to UC10--><g id="link_Member_UC10"><path d="M106.29,526.7783 C130.34,492.6783 169.4,443.8383 214.07,413.4883 C303.07,353.0083 416.1946,324.3715 506.7246,309.9615 " fill="none" id="Member-to-UC10" style="stroke:#181818;stroke-width:1.0;"/><polygon fill="#181818" points="512.65,309.0183,503.1331,306.4828,507.7122,309.8043,504.3907,314.3833,512.65,309.0183" style="stroke:#181818;stroke-width:1.0;"/></g><!--link Member to UC11--><g id="link_Member_UC11"><path d="M121.33,526.9883 C146.23,505.2383 179.87,479.3283 214.07,463.4883 C324.04,412.5583 457.9366,394.4846 548.1566,387.7546 " fill="none" id="Member-to-UC11" style="stroke:#181818;stroke-width:1.0;"/><polygon fill="#181818" points="554.14,387.3083,544.8674,383.9889,549.1539,387.6802,545.4625,391.9667,554.14,387.3083" style="stroke:#181818;stroke-width:1.0;"/></g><!--link Manager to UC16--><g id="link_Manager_UC16"><path d="M329.77,1399.8983 C351.89,1409.4683 381.09,1421.0783 407.95,1428.4883 C456.54,1441.8983 506.1261,1450.5098 551.2961,1456.7298 " fill="none" id="Manager-to-UC16" style="stroke:#181818;stroke-width:1.0;"/><polygon fill="#181818" points="557.24,1457.5483,548.8698,1452.3579,552.2867,1456.8662,547.7785,1460.2832,557.24,1457.5483" style="stroke:#181818;stroke-width:1.0;"/></g><!--link Manager to UC17--><g id="link_Manager_UC17"><path d="M329.67,1383.4883 C374.82,1383.4883 448.94,1383.4883 517.22,1383.4883 " fill="none" id="Manager-to-UC17" style="stroke:#181818;stroke-width:1.0;"/><polygon fill="#181818" points="523.22,1383.4883,514.22,1379.4883,518.22,1383.4883,514.22,1387.4883,523.22,1383.4883" style="stroke:#181818;stroke-width:1.0;"/></g><!--link Manager to UC18--><g id="link_Manager_UC18"><path d="M329.63,1367.5783 C351.82,1358.1283 381.15,1346.4783 407.95,1338.4883 C447.33,1326.7483 485.3243,1318.014 524.5543,1310.244 " fill="none" id="Manager-to-UC18" style="stroke:#181818;stroke-width:1.0;"/><polygon fill="#181818" points="530.44,1309.0783,520.8343,1306.9031,525.5353,1310.0497,522.3887,1314.7507,530.44,1309.0783" style="stroke:#181818;stroke-width:1.0;"/></g><!--link Manager to UC19--><g id="link_Manager_UC19"><path d="M314.43,1345.0483 C333.99,1312.0783 366.61,1265.9783 407.95,1240.4883 C437.93,1221.9983 467.7843,1211.5104 502.3143,1204.0804 " fill="none" id="Manager-to-UC19" style="stroke:#181818;stroke-width:1.0;"/><polygon fill="#181818" points="508.18,1202.8183,498.5399,1200.801,503.2919,1203.8701,500.2228,1208.622,508.18,1202.8183" style="stroke:#181818;stroke-width:1.0;"/></g><!--link Manager to UC20--><g id="link_Manager_UC20"><path d="M300.55,1344.8383 C312,1290.0283 341.14,1190.7983 407.95,1140.4883 C449.61,1109.1183 501.1444,1099.5267 549.1744,1097.6967 " fill="none" id="Manager-to-UC20" style="stroke:#181818;stroke-width:1.0;"/><polygon fill="#181818" points="555.17,1097.4683,546.0242,1093.8138,550.1736,1097.6586,546.3288,1101.808,555.17,1097.4683" style="stroke:#181818;stroke-width:1.0;"/></g><!--link Manager to UC21--><g id="link_Manager_UC21"><path d="M295.59,1344.8583 C300.61,1276.5083 321.5,1134.7683 407.95,1063.4883 C453.45,1025.9683 515.1316,1018.7598 566.6616,1019.9498 " fill="none" id="Manager-to-UC21" style="stroke:#181818;stroke-width:1.0;"/><polygon fill="#181818" points="572.66,1020.0883,563.7547,1015.8816,567.6613,1019.9728,563.5701,1023.8794,572.66,1020.0883" style="stroke:#181818;stroke-width:1.0;"/></g><!--link Manager to UC22--><g id="link_Manager_UC22"><path d="M296.12,1422.1783 C301.99,1488.7783 324.16,1624.4783 407.95,1692.4883 C455.01,1730.6883 519.2138,1737.023 571.1538,1735.163 " fill="none" id="Manager-to-UC22" style="stroke:#181818;stroke-width:1.0;"/><polygon fill="#181818" points="577.15,1734.9483,568.0126,1731.2729,572.1532,1735.1272,568.2989,1739.2678,577.15,1734.9483" style="stroke:#181818;stroke-width:1.0;"/></g><!--link Manager to UC23--><g id="link_Manager_UC23"><path d="M303.69,1422.0683 C317.98,1470.6683 349.56,1553.0683 407.95,1596.4883 C437.1,1618.1583 467.7151,1629.5089 503.2951,1636.5789 " fill="none" id="Manager-to-UC23" style="stroke:#181818;stroke-width:1.0;"/><polygon fill="#181818" points="509.18,1637.7483,501.1322,1632.0709,504.2759,1636.7738,499.573,1639.9175,509.18,1637.7483" style="stroke:#181818;stroke-width:1.0;"/></g><!--link Manager to UC24--><g id="link_Manager_UC24"><path d="M319.2,1422.2183 C339.67,1450.4183 371.11,1487.1083 407.95,1507.4883 C443.77,1527.3083 480.8613,1537.4864 520.4113,1543.6364 " fill="none" id="Manager-to-UC24" style="stroke:#181818;stroke-width:1.0;"/><polygon fill="#181818" points="526.34,1544.5583,518.0615,1539.2229,521.3994,1543.79,516.8323,1547.1279,526.34,1544.5583" style="stroke:#181818;stroke-width:1.0;"/></g><!--link Bank to UC7--><g id="link_Bank_UC7"><path d="M362.66,978.6583 C416.14,973.3383 485.0395,966.4822 544.3495,960.5822 " fill="none" id="Bank-to-UC7" style="stroke:#181818;stroke-width:1.0;"/><polygon fill="#181818" points="550.32,959.9883,540.9682,956.8988,545.3446,960.4832,541.7602,964.8595,550.32,959.9883" style="stroke:#181818;stroke-width:1.0;"/></g><!--link Sales to UC12--><g id="link_Sales_UC12"><path d="M335.38,1899.8983 C355.8,1882.8783 381.66,1864.1283 407.95,1852.4883 C446.37,1835.4783 485.1288,1825.8575 525.3288,1819.2775 " fill="none" id="Sales-to-UC12" style="stroke:#181818;stroke-width:1.0;"/><polygon fill="#181818" points="531.25,1818.3083,521.7221,1815.8146,526.3157,1819.1159,523.0143,1823.7095,531.25,1818.3083" style="stroke:#181818;stroke-width:1.0;"/></g><!--link Sales to UC13--><g id="link_Sales_UC13"><path d="M336.84,1977.1083 C357.17,1993.7183 382.54,2012.1283 407.95,2024.4883 C433.87,2037.0983 456.907,2045.7345 485.237,2054.1245 " fill="none" id="Sales-to-UC13" style="stroke:#181818;stroke-width:1.0;"/><polygon fill="#181818" points="490.99,2055.8283,483.4963,2049.4373,486.1958,2054.4085,481.2246,2057.108,490.99,2055.8283" style="stroke:#181818;stroke-width:1.0;"/></g><!--link Sales to UC14--><g id="link_Sales_UC14"><path d="M372.07,1948.0283 C422.46,1954.1883 482.6143,1961.5509 537.2243,1968.2209 " fill="none" id="Sales-to-UC14" style="stroke:#181818;stroke-width:1.0;"/><polygon fill="#181818" points="543.18,1968.9483,534.7313,1963.8866,538.2169,1968.3421,533.7614,1971.8276,543.18,1968.9483" style="stroke:#181818;stroke-width:1.0;"/></g><!--link Sales to UC15--><g id="link_Sales_UC15"><path d="M372.07,1928.9483 C423.37,1922.6683 485.0043,1915.1359 540.1743,1908.3959 " fill="none" id="Sales-to-UC15" style="stroke:#181818;stroke-width:1.0;"/><polygon fill="#181818" points="546.13,1907.6683,536.7114,1904.7892,541.1669,1908.2746,537.6815,1912.7302,546.13,1907.6683" style="stroke:#181818;stroke-width:1.0;"/></g><!--link Time to UC25--><g id="link_Time_UC25"><path d="M314.44,2205.4883 C345.6,2205.4883 401.96,2205.4883 464.26,2205.4883 " fill="none" id="Time-to-UC25" style="stroke:#181818;stroke-width:1.0;"/><polygon fill="#181818" points="470.26,2205.4883,461.26,2201.4883,465.26,2205.4883,461.26,2209.4883,470.26,2205.4883" style="stroke:#181818;stroke-width:1.0;"/></g><!--link Member to Visitor--><g id="link_Member_Visitor"><path d="M154.53,549.4683 C187.59,542.2583 207.6936,537.8747 235.2436,531.8647 " fill="none" id="Member-to-Visitor" style="stroke:#181818;stroke-width:1.0;"/><polygon fill="none" points="252.83,528.0283,233.9648,526.0026,236.5224,537.7269,252.83,528.0283" style="stroke:#181818;stroke-width:1.0;"/></g><!--SRC=[fLTBJzj04BxxLwouz8H4NZmk7Cgv9qhlBdLfH0Y8f8UghSIZGAiWqg9AxQ6K8lv0S34rSHB-mku_wZUpQoVUF302oKbclVFDuvkT7MhhvUgMk-rkY2rtTTrTyvRhxogUsFPMwsvrhU8v5UzrNTGtnNPvxKrTl2hJc_9crN7gvJesoWlPahTgJyWxjIDxyYy-Mx8ZEweXP2HxgYaZTIox-BMhzcGerAuC-CUK_4fBhDN6wqyoc7AS9qB-PgX0NkE9y7HbA0C1r3RqUhpVTzpL-kOsCCu9M2FY2SZOb71huaMvLiQEPD-bEf8jTe7WsYFSPRLdtiPBhw_rYysJApUmiQEtk5MagR_d6m2w587quKaRLfeKPCZ60c2tMEsfMrrFT2u6Nmkr3-SeX5RirZKmRrXjsQrujKJlb1FJKKr-zxoyuJcJKgQZWw0EKowfXcFOPbyUHE2KUEy8_C7gAMBTWIMO08_O3WFo3XYay8yIOgmt1JoBw6kOhYQZlQrvgsvDkzE3BX80oED-QhhuTIBmfWKB58YcUMKfP-cVKnImqS4d5LUWSSXtXjGbo24RPbQMyiuZGh8ggq_YG2Oj7q_nzfOFWVJJnEmRZmgMnayOxsXYJJpmHFDjlF47SaNm0xaYqXYrQA5-nyOhxF8DAclwEjDKo3jOZJqgMRe_e7T51OATeJwKXhCXrLcR8cpcd2RXi1SHPtsthzym-dEPA6RGW7Ak3a44SWiR2HYQYmQRpmRMPlz2pYYHumCBBIfKdv7oji5Qo5XxXeOUzHsVwxkBM7LztCGaojkuecSis3zKNnmSLTfUdER8r0rblfqaEvTxJ35V33Q9SOrfYCx0D9_McDhiCHVa9Bw9a8FOsVp3iUJLk42wgg4E9cHODVk62wEe8rkKCQkCn_H13LIy7sWyvN5HvagF8SswfMHhn57rJHs7vf3Z2JIfVFmfmjYNsNjw3tP3L2Vg2nO9jJa6Q2vRksbGioBLwudSnQZp3swDlKaK94JQXvdkr7rkSQ6-tPEIZ8-WEedlZvbxVHhMiI-kIpvSqGID_D0rqksp6YOcHru9uwxFV25pNyy0LdnC6PlXHljlUNK6k2F6Y3ASAjFwkOb0uYY6AobVSZxoz7I18cm2AnmzdvXHKanFB_AyaPRpDaIcUK3FcGQYa1QBQR6K5cVJubnQd4-B2saHDqjQpjdE3xSIC-x66hFsmfozC6ylB5WBE2tMGivUoDiB1NkXQ7jkZ-4q0bapButWITeizMmN7q_ZSLpvj5X8YyMqMB8DfgkTHlauDBtrZ2_zYBb8JeiC-WH-M4p-oVaF]--></g></svg>