<svg xmlns="http://www.w3.org/2000/svg" xmlns:xlink="http://www.w3.org/1999/xlink" contentStyleType="text/css" height="508px" preserveAspectRatio="none" style="width:889px;height:508px;background:#FFFFFF;" version="1.1" viewBox="0 0 889 508" width="889px" zoomAndPan="magnify"><defs/><g><!--class ???????--><g id="elem_&#1055;&#1088;&#1072;&#1074;&#1080;&#1083;&#1086;"><rect codeLine="2" fill="#F1F1F1" height="163.418" id="&#1055;&#1088;&#1072;&#1074;&#1080;&#1083;&#1086;" rx="2.5" ry="2.5" style="stroke:#181818;stroke-width:0.5;" width="182.4336" x="234.58" y="7"/><ellipse cx="291.6567" cy="23" fill="#A9DCDF" rx="11" ry="11" style="stroke:#181818;stroke-width:1.0;"/><path d="M291.7699,18.3481 L290.6161,23.4199 L292.9321,23.4199 Z M290.2758,16.1069 L293.2724,16.1069 L296.6176,28.5 L294.1689,28.5 L293.4052,25.437 L290.1264,25.437 L289.3793,28.5 L286.9306,28.5 Z " fill="#000000"/><text fill="#000000" font-family="sans-serif" font-size="14" font-style="italic" lengthAdjust="spacing" textLength="59.7803" x="312.1567" y="28.291">&#1055;&#1088;&#1072;&#1074;&#1080;&#1083;&#1086;</text><line style="stroke:#181818;stroke-width:0.5;" x1="235.58" x2="416.0136" y1="39" y2="39"/><ellipse cx="245.58" cy="52.7441" fill="none" rx="3" ry="3" style="stroke:#038048;stroke-width:1.0;"/><text fill="#000000" font-family="sans-serif" font-size="14" lengthAdjust="spacing" textLength="82.749" x="254.58" y="56.5352">&#1082;&#1086;&#1076;: Integer</text><ellipse cx="245.58" cy="69.2324" fill="none" rx="3" ry="3" style="stroke:#038048;stroke-width:1.0;"/><text fill="#000000" font-family="sans-serif" font-size="14" lengthAdjust="spacing" textLength="135.1055" x="254.58" y="73.0234">&#1090;&#1080;&#1087; &#1087;&#1088;&#1072;&#1074;&#1080;&#1083;&#1072;: String</text><ellipse cx="245.58" cy="85.7207" fill="none" rx="3" ry="3" style="stroke:#038048;stroke-width:1.0;"/><text fill="#000000" font-family="sans-serif" font-size="14" lengthAdjust="spacing" textLength="104.2275" x="254.58" y="89.5117">&#1091;&#1089;&#1083;&#1086;&#1074;&#1080;&#1077;: String</text><ellipse cx="245.58" cy="102.209" fill="none" rx="3" ry="3" style="stroke:#038048;stroke-width:1.0;"/><text fill="#000000" font-family="sans-serif" font-size="14" lengthAdjust="spacing" textLength="115.2129" x="254.58" y="106">&#1086;&#1087;&#1080;&#1089;&#1072;&#1085;&#1080;&#1077;: String</text><ellipse cx="245.58" cy="118.6973" fill="none" rx="3" ry="3" style="stroke:#038048;stroke-width:1.0;"/><text fill="#000000" font-family="sans-serif" font-size="14" lengthAdjust="spacing" textLength="156.4336" x="254.58" y="122.4883">&#1085;&#1072;&#1095;&#1072;&#1083;&#1086; &#1076;&#1077;&#1081;&#1089;&#1090;&#1074;&#1080;&#1103;: Date</text><ellipse cx="245.58" cy="135.1855" fill="none" rx="3" ry="3" style="stroke:#038048;stroke-width:1.0;"/><text fill="#000000" font-family="sans-serif" font-size="14" lengthAdjust="spacing" textLength="150.2744" x="254.58" y="138.9766">&#1082;&#1086;&#1085;&#1077;&#1094; &#1076;&#1077;&#1081;&#1089;&#1090;&#1074;&#1080;&#1103;: Date</text><ellipse cx="245.58" cy="151.6738" fill="none" rx="3" ry="3" style="stroke:#038048;stroke-width:1.0;"/><text fill="#000000" font-family="sans-serif" font-size="14" lengthAdjust="spacing" textLength="104.9248" x="254.58" y="155.4648">&#1092;&#1080;&#1096;&#1082;&#1080;: Integer</text><line style="stroke:#181818;stroke-width:0.5;" x1="235.58" x2="416.0136" y1="162.418" y2="162.418"/></g><!--class ???????_??_????????--><g id="elem_&#1055;&#1088;&#1072;&#1074;&#1080;&#1083;&#1086;_&#1087;&#1086;_&#1086;&#1087;&#1077;&#1088;&#1072;&#1094;&#1080;&#1080;"><rect codeLine="12" fill="#F1F1F1" height="97.4648" id="&#1055;&#1088;&#1072;&#1074;&#1080;&#1083;&#1086;_&#1087;&#1086;_&#1086;&#1087;&#1077;&#1088;&#1072;&#1094;&#1080;&#1080;" rx="2.5" ry="2.5" style="stroke:#181818;stroke-width:0.5;" width="191.5986" x="7" y="230.42"/><ellipse cx="22" cy="246.42" fill="#ADD1B2" rx="11" ry="11" style="stroke:#181818;stroke-width:1.0;"/><path d="M24.9731,252.0631 Q24.3921,252.3619 23.7529,252.5113 Q23.1138,252.6607 22.4082,252.6607 Q19.9014,252.6607 18.5815,251.0089 Q17.2617,249.357 17.2617,246.2359 Q17.2617,243.1065 18.5815,241.4547 Q19.9014,239.8028 22.4082,239.8028 Q23.1138,239.8028 23.7612,239.9522 Q24.4087,240.1016 24.9731,240.4005 L24.9731,243.1231 Q24.3423,242.5421 23.7488,242.2723 Q23.1553,242.0025 22.5244,242.0025 Q21.1797,242.0025 20.4949,243.0692 Q19.8101,244.1358 19.8101,246.2359 Q19.8101,248.3277 20.4949,249.3944 Q21.1797,250.461 22.5244,250.461 Q23.1553,250.461 23.7488,250.1912 Q24.3423,249.9215 24.9731,249.3404 Z " fill="#000000"/><text fill="#000000" font-family="sans-serif" font-size="14" lengthAdjust="spacing" textLength="159.5986" x="36" y="251.711">&#1055;&#1088;&#1072;&#1074;&#1080;&#1083;&#1086;_&#1087;&#1086;_&#1086;&#1087;&#1077;&#1088;&#1072;&#1094;&#1080;&#1080;</text><line style="stroke:#181818;stroke-width:0.5;" x1="8" x2="197.5986" y1="262.42" y2="262.42"/><ellipse cx="18" cy="276.1641" fill="none" rx="3" ry="3" style="stroke:#038048;stroke-width:1.0;"/><text fill="#000000" font-family="sans-serif" font-size="14" lengthAdjust="spacing" textLength="132.1455" x="27" y="279.9552">&#1084;&#1080;&#1085;.&#1089;&#1091;&#1084;&#1084;&#1072;: Double</text><ellipse cx="18" cy="292.6524" fill="none" rx="3" ry="3" style="stroke:#038048;stroke-width:1.0;"/><text fill="#000000" font-family="sans-serif" font-size="14" lengthAdjust="spacing" textLength="157.876" x="27" y="296.4434">&#1084;&#1080;&#1085;.&#1086;&#1087;&#1077;&#1088;&#1072;&#1094;&#1080;&#1081;: Double</text><ellipse cx="18" cy="309.1407" fill="none" rx="3" ry="3" style="stroke:#038048;stroke-width:1.0;"/><text fill="#000000" font-family="sans-serif" font-size="14" lengthAdjust="spacing" textLength="146.166" x="27" y="312.9317">&#1090;&#1080;&#1087; &#1086;&#1087;&#1077;&#1088;&#1072;&#1094;&#1080;&#1080;: String</text><line style="stroke:#181818;stroke-width:0.5;" x1="8" x2="197.5986" y1="319.8848" y2="319.8848"/></g><!--class ???????_??_????--><g id="elem_&#1055;&#1088;&#1072;&#1074;&#1080;&#1083;&#1086;_&#1087;&#1086;_&#1076;&#1072;&#1090;&#1077;"><rect codeLine="18" fill="#F1F1F1" height="80.9766" id="&#1055;&#1088;&#1072;&#1074;&#1080;&#1083;&#1086;_&#1087;&#1086;_&#1076;&#1072;&#1090;&#1077;" rx="2.5" ry="2.5" style="stroke:#181818;stroke-width:0.5;" width="184.4365" x="233.58" y="238.67"/><ellipse cx="261.8238" cy="254.67" fill="#ADD1B2" rx="11" ry="11" style="stroke:#181818;stroke-width:1.0;"/><path d="M264.7969,260.3131 Q264.2159,260.6119 263.5767,260.7613 Q262.9376,260.9107 262.232,260.9107 Q259.7252,260.9107 258.4053,259.2589 Q257.0855,257.607 257.0855,254.4859 Q257.0855,251.3565 258.4053,249.7047 Q259.7252,248.0528 262.232,248.0528 Q262.9376,248.0528 263.585,248.2022 Q264.2325,248.3516 264.7969,248.6505 L264.7969,251.3731 Q264.1661,250.7921 263.5726,250.5223 Q262.9791,250.2525 262.3482,250.2525 Q261.0035,250.2525 260.3187,251.3192 Q259.6339,252.3858 259.6339,254.4859 Q259.6339,256.5777 260.3187,257.6444 Q261.0035,258.711 262.3482,258.711 Q262.9791,258.711 263.5726,258.4412 Q264.1661,258.1715 264.7969,257.5904 Z " fill="#000000"/><text fill="#000000" font-family="sans-serif" font-size="14" lengthAdjust="spacing" textLength="123.0059" x="278.7669" y="259.961">&#1055;&#1088;&#1072;&#1074;&#1080;&#1083;&#1086;_&#1087;&#1086;_&#1076;&#1072;&#1090;&#1077;</text><line style="stroke:#181818;stroke-width:0.5;" x1="234.58" x2="417.0165" y1="270.67" y2="270.67"/><ellipse cx="244.58" cy="284.4141" fill="none" rx="3" ry="3" style="stroke:#038048;stroke-width:1.0;"/><text fill="#000000" font-family="sans-serif" font-size="14" lengthAdjust="spacing" textLength="80.6162" x="253.58" y="288.2052">&#1076;&#1072;&#1090;&#1072;: String</text><ellipse cx="244.58" cy="300.9024" fill="none" rx="3" ry="3" style="stroke:#038048;stroke-width:1.0;"/><text fill="#000000" font-family="sans-serif" font-size="14" lengthAdjust="spacing" textLength="158.4365" x="253.58" y="304.6934">&#1087;&#1088;&#1080;&#1079;&#1085;&#1072;&#1082; &#1076;&#1072;&#1090;&#1099;: Boolean</text><line style="stroke:#181818;stroke-width:0.5;" x1="234.58" x2="417.0165" y1="311.6466" y2="311.6466"/></g><!--class ????????_?????????--><g id="elem_&#1059;&#1095;&#1072;&#1089;&#1090;&#1085;&#1080;&#1082;_&#1087;&#1088;&#1086;&#1075;&#1088;&#1072;&#1084;&#1084;&#1099;"><rect codeLine="23" fill="#F1F1F1" height="130.4414" id="&#1059;&#1095;&#1072;&#1089;&#1090;&#1085;&#1080;&#1082;_&#1087;&#1088;&#1086;&#1075;&#1088;&#1072;&#1084;&#1084;&#1099;" rx="2.5" ry="2.5" style="stroke:#181818;stroke-width:0.5;" width="213.0176" x="669.29" y="23.49"/><ellipse cx="697.9583" cy="39.49" fill="#ADD1B2" rx="11" ry="11" style="stroke:#181818;stroke-width:1.0;"/><path d="M700.9315,45.1331 Q700.3504,45.4319 699.7112,45.5813 Q699.0721,45.7307 698.3665,45.7307 Q695.8597,45.7307 694.5399,44.0789 Q693.22,42.427 693.22,39.3059 Q693.22,36.1765 694.5399,34.5247 Q695.8597,32.8728 698.3665,32.8728 Q699.0721,32.8728 699.7195,33.0222 Q700.367,33.1716 700.9315,33.4705 L700.9315,36.1931 Q700.3006,35.6121 699.7071,35.3423 Q699.1136,35.0725 698.4827,35.0725 Q697.138,35.0725 696.4532,36.1392 Q695.7684,37.2058 695.7684,39.3059 Q695.7684,41.3977 696.4532,42.4644 Q697.138,43.531 698.4827,43.531 Q699.1136,43.531 699.7071,43.2612 Q700.3006,42.9915 700.9315,42.4104 Z " fill="#000000"/><text fill="#000000" font-family="sans-serif" font-size="14" lengthAdjust="spacing" textLength="150.6436" x="714.9957" y="44.781">&#1059;&#1095;&#1072;&#1089;&#1090;&#1085;&#1080;&#1082;_&#1087;&#1088;&#1086;&#1075;&#1088;&#1072;&#1084;&#1084;&#1099;</text><line style="stroke:#181818;stroke-width:0.5;" x1="670.29" x2="881.3076" y1="55.49" y2="55.49"/><ellipse cx="680.29" cy="69.2341" fill="none" rx="3" ry="3" style="stroke:#038048;stroke-width:1.0;"/><text fill="#000000" font-family="sans-serif" font-size="14" lengthAdjust="spacing" textLength="85.5244" x="689.29" y="73.0252">email: String</text><ellipse cx="680.29" cy="85.7224" fill="none" rx="3" ry="3" style="stroke:#038048;stroke-width:1.0;"/><text fill="#000000" font-family="sans-serif" font-size="14" lengthAdjust="spacing" textLength="97.9658" x="689.29" y="89.5134">&#1087;&#1072;&#1088;&#1086;&#1083;&#1100;: String</text><ellipse cx="680.29" cy="102.2107" fill="none" rx="3" ry="3" style="stroke:#038048;stroke-width:1.0;"/><text fill="#000000" font-family="sans-serif" font-size="14" lengthAdjust="spacing" textLength="79.7754" x="689.29" y="106.0017">&#1060;&#1048;&#1054;: String</text><ellipse cx="680.29" cy="118.699" fill="none" rx="3" ry="3" style="stroke:#038048;stroke-width:1.0;"/><text fill="#000000" font-family="sans-serif" font-size="14" lengthAdjust="spacing" textLength="145.9883" x="689.29" y="122.49">&#1076;&#1072;&#1090;&#1072; &#1088;&#1086;&#1078;&#1076;&#1077;&#1085;&#1080;&#1103;: Date</text><ellipse cx="680.29" cy="135.1873" fill="none" rx="3" ry="3" style="stroke:#038048;stroke-width:1.0;"/><text fill="#000000" font-family="sans-serif" font-size="14" lengthAdjust="spacing" textLength="187.0176" x="689.29" y="138.9783">&#1082;&#1086;&#1083;&#1080;&#1095;&#1077;&#1089;&#1090;&#1074;&#1086; &#1092;&#1080;&#1096;&#1077;&#1082;: Integer</text><line style="stroke:#181818;stroke-width:0.5;" x1="670.29" x2="881.3076" y1="145.9314" y2="145.9314"/></g><!--class ?????_??????????--><g id="elem_&#1050;&#1072;&#1088;&#1090;&#1072;_&#1083;&#1086;&#1103;&#1083;&#1100;&#1085;&#1086;&#1089;&#1090;&#1080;"><rect codeLine="31" fill="#F1F1F1" height="97.4648" id="&#1050;&#1072;&#1088;&#1090;&#1072;_&#1083;&#1086;&#1103;&#1083;&#1100;&#1085;&#1086;&#1089;&#1090;&#1080;" rx="2.5" ry="2.5" style="stroke:#181818;stroke-width:0.5;" width="195.0459" x="678.28" y="230.42"/><ellipse cx="709.6307" cy="246.42" fill="#ADD1B2" rx="11" ry="11" style="stroke:#181818;stroke-width:1.0;"/><path d="M712.6039,252.0631 Q712.0228,252.3619 711.3837,252.5113 Q710.7445,252.6607 710.0389,252.6607 Q707.5321,252.6607 706.2123,251.0089 Q704.8925,249.357 704.8925,246.2359 Q704.8925,243.1065 706.2123,241.4547 Q707.5321,239.8028 710.0389,239.8028 Q710.7445,239.8028 711.392,239.9522 Q712.0394,240.1016 712.6039,240.4005 L712.6039,243.1231 Q711.973,242.5421 711.3795,242.2723 Q710.786,242.0025 710.1551,242.0025 Q708.8104,242.0025 708.1256,243.0692 Q707.4408,244.1358 707.4408,246.2359 Q707.4408,248.3277 708.1256,249.3944 Q708.8104,250.461 710.1551,250.461 Q710.786,250.461 711.3795,250.1912 Q711.973,249.9215 712.6039,249.3404 Z " fill="#000000"/><text fill="#000000" font-family="sans-serif" font-size="14" lengthAdjust="spacing" textLength="126.7109" x="727.2642" y="251.711">&#1050;&#1072;&#1088;&#1090;&#1072;_&#1083;&#1086;&#1103;&#1083;&#1100;&#1085;&#1086;&#1089;&#1090;&#1080;</text><line style="stroke:#181818;stroke-width:0.5;" x1="679.28" x2="872.3259" y1="262.42" y2="262.42"/><ellipse cx="689.28" cy="276.1641" fill="none" rx="3" ry="3" style="stroke:#038048;stroke-width:1.0;"/><text fill="#000000" font-family="sans-serif" font-size="14" lengthAdjust="spacing" textLength="101.0215" x="698.28" y="279.9552">&#1085;&#1086;&#1084;&#1077;&#1088;: Integer</text><ellipse cx="689.28" cy="292.6524" fill="none" rx="3" ry="3" style="stroke:#038048;stroke-width:1.0;"/><text fill="#000000" font-family="sans-serif" font-size="14" lengthAdjust="spacing" textLength="169.0459" x="698.28" y="296.4434">&#1073;&#1072;&#1083;&#1072;&#1085;&#1089;: Double {derived}</text><ellipse cx="689.28" cy="309.1407" fill="none" rx="3" ry="3" style="stroke:#038048;stroke-width:1.0;"/><text fill="#000000" font-family="sans-serif" font-size="14" lengthAdjust="spacing" textLength="153.1797" x="698.28" y="312.9317">&#1073;&#1083;&#1086;&#1082;&#1080;&#1088;&#1086;&#1074;&#1072;&#1085;&#1072;: Boolean</text><line style="stroke:#181818;stroke-width:0.5;" x1="679.28" x2="872.3259" y1="319.8848" y2="319.8848"/></g><!--class ????????--><g id="elem_&#1054;&#1087;&#1077;&#1088;&#1072;&#1094;&#1080;&#1103;"><rect codeLine="37" fill="#F1F1F1" height="113.9531" id="&#1054;&#1087;&#1077;&#1088;&#1072;&#1094;&#1080;&#1103;" rx="2.5" ry="2.5" style="stroke:#181818;stroke-width:0.5;" width="170.2314" x="690.68" y="387.89"/><ellipse cx="736.9114" cy="403.89" fill="#ADD1B2" rx="11" ry="11" style="stroke:#181818;stroke-width:1.0;"/><path d="M739.8846,409.5331 Q739.3035,409.8319 738.6644,409.9813 Q738.0252,410.1307 737.3196,410.1307 Q734.8128,410.1307 733.493,408.4789 Q732.1732,406.827 732.1732,403.7059 Q732.1732,400.5765 733.493,398.9247 Q734.8128,397.2728 737.3196,397.2728 Q738.0252,397.2728 738.6727,397.4222 Q739.3201,397.5716 739.8846,397.8705 L739.8846,400.5931 Q739.2537,400.0121 738.6602,399.7423 Q738.0667,399.4725 737.4359,399.4725 Q736.0911,399.4725 735.4063,400.5392 Q734.7215,401.6058 734.7215,403.7059 Q734.7215,405.7977 735.4063,406.8644 Q736.0911,407.931 737.4359,407.931 Q738.0667,407.931 738.6602,407.6612 Q739.2537,407.3915 739.8846,406.8104 Z " fill="#000000"/><text fill="#000000" font-family="sans-serif" font-size="14" lengthAdjust="spacing" textLength="69.2686" x="757.4114" y="409.181">&#1054;&#1087;&#1077;&#1088;&#1072;&#1094;&#1080;&#1103;</text><line style="stroke:#181818;stroke-width:0.5;" x1="691.68" x2="859.9114" y1="419.89" y2="419.89"/><ellipse cx="701.68" cy="433.6341" fill="none" rx="3" ry="3" style="stroke:#038048;stroke-width:1.0;"/><text fill="#000000" font-family="sans-serif" font-size="14" lengthAdjust="spacing" textLength="101.0215" x="710.68" y="437.4252">&#1085;&#1086;&#1084;&#1077;&#1088;: Integer</text><ellipse cx="701.68" cy="450.1224" fill="none" rx="3" ry="3" style="stroke:#038048;stroke-width:1.0;"/><text fill="#000000" font-family="sans-serif" font-size="14" lengthAdjust="spacing" textLength="71.9004" x="710.68" y="453.9134">&#1076;&#1072;&#1090;&#1072;: Date</text><ellipse cx="701.68" cy="466.6107" fill="none" rx="3" ry="3" style="stroke:#038048;stroke-width:1.0;"/><text fill="#000000" font-family="sans-serif" font-size="14" lengthAdjust="spacing" textLength="100.0098" x="710.68" y="470.4017">&#1089;&#1091;&#1084;&#1084;&#1072;: Double</text><ellipse cx="701.68" cy="483.099" fill="none" rx="3" ry="3" style="stroke:#038048;stroke-width:1.0;"/><text fill="#000000" font-family="sans-serif" font-size="14" lengthAdjust="spacing" textLength="144.2314" x="710.68" y="486.89">&#1090;&#1080;&#1087; &#1086;&#1087;&#1077;&#1088;&#1072;&#1094;&#1080;&#1080;: Enum</text><line style="stroke:#181818;stroke-width:0.5;" x1="691.68" x2="859.9114" y1="493.8431" y2="493.8431"/></g><!--class ??????????????--><g id="elem_&#1042;&#1086;&#1079;&#1085;&#1072;&#1075;&#1088;&#1072;&#1078;&#1076;&#1077;&#1085;&#1080;&#1077;"><rect codeLine="44" fill="#F1F1F1" height="97.4648" id="&#1042;&#1086;&#1079;&#1085;&#1072;&#1075;&#1088;&#1072;&#1078;&#1076;&#1077;&#1085;&#1080;&#1077;" rx="2.5" ry="2.5" style="stroke:#181818;stroke-width:0.5;" width="184.6895" x="453.45" y="230.42"/><ellipse cx="484.9269" cy="246.42" fill="#ADD1B2" rx="11" ry="11" style="stroke:#181818;stroke-width:1.0;"/><path d="M487.9,252.0631 Q487.3189,252.3619 486.6798,252.5113 Q486.0406,252.6607 485.3351,252.6607 Q482.8282,252.6607 481.5084,251.0089 Q480.1886,249.357 480.1886,246.2359 Q480.1886,243.1065 481.5084,241.4547 Q482.8282,239.8028 485.3351,239.8028 Q486.0406,239.8028 486.6881,239.9522 Q487.3355,240.1016 487.9,240.4005 L487.9,243.1231 Q487.2691,242.5421 486.6756,242.2723 Q486.0821,242.0025 485.4513,242.0025 Q484.1065,242.0025 483.4217,243.0692 Q482.7369,244.1358 482.7369,246.2359 Q482.7369,248.3277 483.4217,249.3944 Q484.1065,250.461 485.4513,250.461 Q486.0821,250.461 486.6756,250.1912 Q487.2691,249.9215 487.9,249.3404 Z " fill="#000000"/><text fill="#000000" font-family="sans-serif" font-size="14" lengthAdjust="spacing" textLength="116.0742" x="502.5884" y="251.711">&#1042;&#1086;&#1079;&#1085;&#1072;&#1075;&#1088;&#1072;&#1078;&#1076;&#1077;&#1085;&#1080;&#1077;</text><line style="stroke:#181818;stroke-width:0.5;" x1="454.45" x2="637.1395" y1="262.42" y2="262.42"/><ellipse cx="464.45" cy="276.1641" fill="none" rx="3" ry="3" style="stroke:#038048;stroke-width:1.0;"/><text fill="#000000" font-family="sans-serif" font-size="14" lengthAdjust="spacing" textLength="101.0215" x="473.45" y="279.9552">&#1085;&#1086;&#1084;&#1077;&#1088;: Integer</text><ellipse cx="464.45" cy="292.6524" fill="none" rx="3" ry="3" style="stroke:#038048;stroke-width:1.0;"/><text fill="#000000" font-family="sans-serif" font-size="14" lengthAdjust="spacing" textLength="71.9004" x="473.45" y="296.4434">&#1076;&#1072;&#1090;&#1072;: Date</text><ellipse cx="464.45" cy="309.1407" fill="none" rx="3" ry="3" style="stroke:#038048;stroke-width:1.0;"/><text fill="#000000" font-family="sans-serif" font-size="14" lengthAdjust="spacing" textLength="158.6895" x="473.45" y="312.9317">&#1080;&#1089;&#1087;&#1086;&#1083;&#1100;&#1079;&#1086;&#1074;&#1072;&#1085;&#1086;: Boolean</text><line style="stroke:#181818;stroke-width:0.5;" x1="454.45" x2="637.1395" y1="319.8848" y2="319.8848"/></g><!--class ???_??????????????--><g id="elem_&#1042;&#1080;&#1076;_&#1074;&#1086;&#1079;&#1085;&#1072;&#1075;&#1088;&#1072;&#1078;&#1076;&#1077;&#1085;&#1080;&#1103;"><rect codeLine="50" fill="#F1F1F1" height="97.4648" id="&#1042;&#1080;&#1076;_&#1074;&#1086;&#1079;&#1085;&#1072;&#1075;&#1088;&#1072;&#1078;&#1076;&#1077;&#1085;&#1080;&#1103;" rx="2.5" ry="2.5" style="stroke:#181818;stroke-width:0.5;" width="180.1143" x="453.74" y="39.98"/><ellipse cx="468.74" cy="55.98" fill="#ADD1B2" rx="11" ry="11" style="stroke:#181818;stroke-width:1.0;"/><path d="M471.7131,61.6231 Q471.1321,61.9219 470.4929,62.0713 Q469.8538,62.2207 469.1482,62.2207 Q466.6414,62.2207 465.3215,60.5689 Q464.0017,58.917 464.0017,55.7959 Q464.0017,52.6665 465.3215,51.0147 Q466.6414,49.3628 469.1482,49.3628 Q469.8538,49.3628 470.5012,49.5122 Q471.1487,49.6616 471.7131,49.9605 L471.7131,52.6831 Q471.0823,52.1021 470.4888,51.8323 Q469.8953,51.5625 469.2644,51.5625 Q467.9197,51.5625 467.2349,52.6292 Q466.5501,53.6958 466.5501,55.7959 Q466.5501,57.8877 467.2349,58.9544 Q467.9197,60.021 469.2644,60.021 Q469.8953,60.021 470.4888,59.7512 Q471.0823,59.4815 471.7131,58.9004 Z " fill="#000000"/><text fill="#000000" font-family="sans-serif" font-size="14" lengthAdjust="spacing" textLength="148.1143" x="482.74" y="61.271">&#1042;&#1080;&#1076;_&#1074;&#1086;&#1079;&#1085;&#1072;&#1075;&#1088;&#1072;&#1078;&#1076;&#1077;&#1085;&#1080;&#1103;</text><line style="stroke:#181818;stroke-width:0.5;" x1="454.74" x2="632.8543" y1="71.98" y2="71.98"/><ellipse cx="464.74" cy="85.7241" fill="none" rx="3" ry="3" style="stroke:#038048;stroke-width:1.0;"/><text fill="#000000" font-family="sans-serif" font-size="14" lengthAdjust="spacing" textLength="82.749" x="473.74" y="89.5152">&#1082;&#1086;&#1076;: Integer</text><ellipse cx="464.74" cy="102.2124" fill="none" rx="3" ry="3" style="stroke:#038048;stroke-width:1.0;"/><text fill="#000000" font-family="sans-serif" font-size="14" lengthAdjust="spacing" textLength="112.4785" x="473.74" y="106.0034">&#1085;&#1072;&#1079;&#1074;&#1072;&#1085;&#1080;&#1077;: String</text><ellipse cx="464.74" cy="118.7007" fill="none" rx="3" ry="3" style="stroke:#038048;stroke-width:1.0;"/><text fill="#000000" font-family="sans-serif" font-size="14" lengthAdjust="spacing" textLength="115.2129" x="473.74" y="122.4917">&#1086;&#1087;&#1080;&#1089;&#1072;&#1085;&#1080;&#1077;: String</text><line style="stroke:#181818;stroke-width:0.5;" x1="454.74" x2="632.8543" y1="129.4448" y2="129.4448"/></g><!--reverse link ??????? to ???????_??_????????--><g id="link_&#1055;&#1088;&#1072;&#1074;&#1080;&#1083;&#1086;_&#1055;&#1088;&#1072;&#1074;&#1080;&#1083;&#1086;_&#1087;&#1086;_&#1086;&#1087;&#1077;&#1088;&#1072;&#1094;&#1080;&#1080;"><path codeLine="56" d="M220.3787,178.7947 C195.1487,200.1047 182.28,210.99 159.64,230.12 " fill="none" id="&#1055;&#1088;&#1072;&#1074;&#1080;&#1083;&#1086;-backto-&#1055;&#1088;&#1072;&#1074;&#1080;&#1083;&#1086;_&#1087;&#1086;_&#1086;&#1087;&#1077;&#1088;&#1072;&#1094;&#1080;&#1080;" style="stroke:#181818;stroke-width:1.0;"/><polygon fill="none" points="234.13,167.18,216.5071,174.211,224.2503,183.3785,234.13,167.18" style="stroke:#181818;stroke-width:1.0;"/></g><!--reverse link ??????? to ???????_??_????--><g id="link_&#1055;&#1088;&#1072;&#1074;&#1080;&#1083;&#1086;_&#1055;&#1088;&#1072;&#1074;&#1080;&#1083;&#1086;_&#1087;&#1086;_&#1076;&#1072;&#1090;&#1077;"><path codeLine="57" d="M325.8,188.72 C325.8,212.07 325.8,218.51 325.8,238.18 " fill="none" id="&#1055;&#1088;&#1072;&#1074;&#1080;&#1083;&#1086;-backto-&#1055;&#1088;&#1072;&#1074;&#1080;&#1083;&#1086;_&#1087;&#1086;_&#1076;&#1072;&#1090;&#1077;" style="stroke:#181818;stroke-width:1.0;"/><polygon fill="none" points="325.8,170.72,319.8,188.72,331.8,188.72,325.8,170.72" style="stroke:#181818;stroke-width:1.0;"/></g><!--link ????????_????????? to ?????_??????????--><g id="link_&#1059;&#1095;&#1072;&#1089;&#1090;&#1085;&#1080;&#1082;_&#1087;&#1088;&#1086;&#1075;&#1088;&#1072;&#1084;&#1084;&#1099;_&#1050;&#1072;&#1088;&#1090;&#1072;_&#1083;&#1086;&#1103;&#1083;&#1100;&#1085;&#1086;&#1089;&#1090;&#1080;"><path codeLine="59" d="M775.8,154.3 C775.8,179.12 775.8,207 775.8,230.02 " fill="none" id="&#1059;&#1095;&#1072;&#1089;&#1090;&#1085;&#1080;&#1082;_&#1087;&#1088;&#1086;&#1075;&#1088;&#1072;&#1084;&#1084;&#1099;-&#1050;&#1072;&#1088;&#1090;&#1072;_&#1083;&#1086;&#1103;&#1083;&#1100;&#1085;&#1086;&#1089;&#1090;&#1080;" style="stroke:#181818;stroke-width:1.0;"/><text fill="#000000" font-family="sans-serif" font-size="13" lengthAdjust="spacing" textLength="8.2202" x="767.399" y="174.4217">1</text><text fill="#000000" font-family="sans-serif" font-size="13" lengthAdjust="spacing" textLength="22.7119" x="752.3028" y="219.6463">1..*</text></g><!--link ?????_?????????? to ????????--><g id="link_&#1050;&#1072;&#1088;&#1090;&#1072;_&#1083;&#1086;&#1103;&#1083;&#1100;&#1085;&#1086;&#1089;&#1090;&#1080;_&#1054;&#1087;&#1077;&#1088;&#1072;&#1094;&#1080;&#1103;"><path codeLine="60" d="M775.8,327.95 C775.8,346.63 775.8,368.2 775.8,387.63 " fill="none" id="&#1050;&#1072;&#1088;&#1090;&#1072;_&#1083;&#1086;&#1103;&#1083;&#1100;&#1085;&#1086;&#1089;&#1090;&#1080;-&#1054;&#1087;&#1077;&#1088;&#1072;&#1094;&#1080;&#1103;" style="stroke:#181818;stroke-width:1.0;"/><text fill="#000000" font-family="sans-serif" font-size="13" lengthAdjust="spacing" textLength="8.2202" x="767.2526" y="348.457">1</text><text fill="#000000" font-family="sans-serif" font-size="13" lengthAdjust="spacing" textLength="22.7119" x="752.5033" y="377.3275">1..*</text></g><!--link ????????_????????? to ??????????????--><g id="link_&#1059;&#1095;&#1072;&#1089;&#1090;&#1085;&#1080;&#1082;_&#1087;&#1088;&#1086;&#1075;&#1088;&#1072;&#1084;&#1084;&#1099;_&#1042;&#1086;&#1079;&#1085;&#1072;&#1075;&#1088;&#1072;&#1078;&#1076;&#1077;&#1085;&#1080;&#1077;"><path codeLine="61" d="M696.97,154.3 C666.67,179.12 632.64,207 604.55,230.02 " fill="none" id="&#1059;&#1095;&#1072;&#1089;&#1090;&#1085;&#1080;&#1082;_&#1087;&#1088;&#1086;&#1075;&#1088;&#1072;&#1084;&#1084;&#1099;-&#1042;&#1086;&#1079;&#1085;&#1072;&#1075;&#1088;&#1072;&#1078;&#1076;&#1077;&#1085;&#1080;&#1077;" style="stroke:#181818;stroke-width:1.0;"/><text fill="#000000" font-family="sans-serif" font-size="13" lengthAdjust="spacing" textLength="8.2202" x="680.4396" y="174.4217">1</text><text fill="#000000" font-family="sans-serif" font-size="13" lengthAdjust="spacing" textLength="22.7119" x="589.3156" y="219.6463">1..*</text></g><!--link ??????? to ??????????????--><g id="link_&#1055;&#1088;&#1072;&#1074;&#1080;&#1083;&#1086;_&#1042;&#1086;&#1079;&#1085;&#1072;&#1075;&#1088;&#1072;&#1078;&#1076;&#1077;&#1085;&#1080;&#1077;"><path codeLine="62" d="M417.51,168.26 C442.03,189.27 467.8,211.34 489.76,230.15 " fill="none" id="&#1055;&#1088;&#1072;&#1074;&#1080;&#1083;&#1086;-&#1042;&#1086;&#1079;&#1085;&#1072;&#1075;&#1088;&#1072;&#1078;&#1076;&#1077;&#1085;&#1080;&#1077;" style="stroke:#181818;stroke-width:1.0;"/><text fill="#000000" font-family="sans-serif" font-size="13" lengthAdjust="spacing" textLength="8.2202" x="425.1459" y="171.5823">1</text><text fill="#000000" font-family="sans-serif" font-size="13" lengthAdjust="spacing" textLength="22.7119" x="458.3833" y="219.7945">1..*</text></g><!--link ???_?????????????? to ??????????????--><g id="link_&#1042;&#1080;&#1076;_&#1074;&#1086;&#1079;&#1085;&#1072;&#1075;&#1088;&#1072;&#1078;&#1076;&#1077;&#1085;&#1080;&#1103;_&#1042;&#1086;&#1079;&#1085;&#1072;&#1075;&#1088;&#1072;&#1078;&#1076;&#1077;&#1085;&#1080;&#1077;"><path codeLine="63" d="M544.31,137.75 C544.61,166.1 544.99,201.87 545.29,230.2 " fill="none" id="&#1042;&#1080;&#1076;_&#1074;&#1086;&#1079;&#1085;&#1072;&#1075;&#1088;&#1072;&#1078;&#1076;&#1077;&#1085;&#1080;&#1103;-&#1042;&#1086;&#1079;&#1085;&#1072;&#1075;&#1088;&#1072;&#1078;&#1076;&#1077;&#1085;&#1080;&#1077;" style="stroke:#181818;stroke-width:1.0;"/><text fill="#000000" font-family="sans-serif" font-size="13" lengthAdjust="spacing" textLength="8.2202" x="535.8562" y="157.9365">1</text><text fill="#000000" font-family="sans-serif" font-size="13" lengthAdjust="spacing" textLength="22.7119" x="521.7222" y="219.8516">1..*</text></g><!--SRC=[dLJBJi905Dtp5HEM6aZODguCBbpx0Ks1Xf0KI4frWoG21amm8M5bNE12Fw1YAwNGzXVk_95tfYrzMA6u8VJEVPnxpfcHQZrDbUeQgIjIhqVWZJw03YkmO0ikwHS8EITWWmk6GAuxcjoKLHwZ8qpn27YnV5qWDvhQwZJzZ34TiYRyq4mSOT032uzrS7uVEg3JAHun06202Hiwn77OXiu5KfKqEKBbW4adXxBe8mQUCDUAy0yAXQnjHGI5FmoRoU9qWd4hv6277quPPupnxuxjMktUrXGvVfggtIHoGiPI_VUx7qPbOFu8p12D_vaad6jXmPeH27QGGsS2kUns5Ldgn2QyCu8vNun_M-IbBdpnmRWUdGM3vBRKKb9Ji98bR-bpyk03Nc2P30Km2I_uvZ8vMJ9kCJX5Ldm5tL0r4-mirLuP0jPNP0JHEOE2VLrUlXSC0xWACfqqBdnoQw7pw33KX_GRijgwank3C8Nv5Zt3SQ-uJVKi7fTnBUdysEYzQf4zi_tqfrUkEhVjsFm5PlXw-zBjAOwSaXyBlv6Uhons3HTtinPVu0X3P5fbpu-uo7WxUC4wQ9_xRS3XgTVfuhvKodM7ynS6rmn7vRWYnKgHOADYfLm-AnwpPU6ORLFTKjRw3w03xaWpSafb3krFQFS3]--></g></svg>